HIERARCHY
ROOT RootJoint
{
    OFFSET   0.000000   0.000000   0.000000
    CHANNELS 6 Xposition Yposition Zposition Xrotation Yrotation Zrotation
    JOINT pelvis_lowerback
    {
        OFFSET   0.000000   0.093605   0.000000
        CHANNELS 3 Xrotation Yrotation Zrotation
        JOINT lowerback_torso
        {
            OFFSET   0.000000   0.100000   0.000000
            CHANNELS 3 Xrotation Yrotation Zrotation
            JOINT torso_head
            {
                OFFSET   0.000000   0.282350   0.000000
                CHANNELS 3 Xrotation Yrotation Zrotation
                End Site
                {
                    OFFSET   0.000000   0.192650   0.000000
                }
            }
            JOINT rTorso_Clavicle
            {
                OFFSET  -0.001000   0.157500   0.000000
                CHANNELS 3 Xrotation Yrotation Zrotation
                JOINT rShoulder
                {
                    OFFSET  -0.117647   0.000000   0.000000
                    CHANNELS 3 Xrotation Yrotation Zrotation
                    JOINT rElbow
                    {
                        OFFSET  -0.245000   0.000000   0.000000
                        CHANNELS 3 Xrotation Yrotation Zrotation
                        JOINT rWrist
                        {
                            OFFSET  -0.240000   0.000000   0.000000
                            CHANNELS 3 Xrotation Yrotation Zrotation
                            End Site
                            {
                                OFFSET  -0.116353  -0.002500   0.000000
                            }
                        }
                    }
                }
            }
            JOINT lTorso_Clavicle
            {
                OFFSET   0.001000   0.157500   0.000000
                CHANNELS 3 Xrotation Yrotation Zrotation
                JOINT lShoulder
                {
                    OFFSET   0.117647   0.000000   0.000000
                    CHANNELS 3 Xrotation Yrotation Zrotation
                    JOINT lElbow
                    {
                        OFFSET   0.245000   0.000000   0.000000
                        CHANNELS 3 Xrotation Yrotation Zrotation
                        JOINT lWrist
                        {
                            OFFSET   0.240000   0.000000   0.000000
                            CHANNELS 3 Xrotation Yrotation Zrotation
                            End Site
                            {
                                OFFSET   0.116353  -0.002500   0.000000
                            }
                        }
                    }
                }
            }
        }
    }
    JOINT rHip
    {
        OFFSET  -0.100000  -0.051395   0.000000
        CHANNELS 3 Xrotation Yrotation Zrotation
        JOINT rKnee
        {
            OFFSET   0.000000  -0.410000   0.000000
            CHANNELS 3 Xrotation Yrotation Zrotation
            JOINT rAnkle
            {
                OFFSET   0.000000  -0.390000   0.000000
                CHANNELS 3 Xrotation Yrotation Zrotation
                JOINT rToeJoint
                {
                    OFFSET   0.000000  -0.050000   0.130000
                    CHANNELS 3 Xrotation Yrotation Zrotation
                    End Site
                    {
                        OFFSET  -0.010000   0.002000   0.060000
                    }
                }
            }
        }
    }
    JOINT lHip
    {
        OFFSET   0.100000  -0.051395   0.000000
        CHANNELS 3 Xrotation Yrotation Zrotation
        JOINT lKnee
        {
            OFFSET   0.000000  -0.410000   0.000000
            CHANNELS 3 Xrotation Yrotation Zrotation
            JOINT lAnkle
            {
                OFFSET   0.000000  -0.390000   0.000000
                CHANNELS 3 Xrotation Yrotation Zrotation
                JOINT lToeJoint
                {
                    OFFSET   0.000000  -0.050000   0.130000
                    CHANNELS 3 Xrotation Yrotation Zrotation
                    End Site
                    {
                        OFFSET   0.010000   0.002000   0.060000
                    }
                }
            }
        }
    }
}
MOTION
Frames: 15
Frame Time:   0.008333
 -2.376719   0.925631   3.975860   0.000000   0.000000   0.000000   0.000000   0.000000   0.000000   0.000000   0.000000   0.000000   0.000000   0.000000   0.000000   0.000000   0.000000   0.000000   0.000000   0.000000   0.000000   0.000000   0.000000   0.000000   0.000000   0.000000   0.000000   0.000000   0.000000   0.000000   0.000000   0.000000   0.000000   0.000000   0.000000   0.000000   0.000000   0.000000   0.000000   0.000000   0.000000   0.000000   0.000000   0.000000   0.000000   0.000000   0.000000   0.000000   0.000000   0.000000   0.000000   0.000000   0.000000   0.000000   0.000000   0.000000   0.000000   0.000000   0.000000   0.000000   0.000000   0.000000   0.000000
 -2.376532   0.924443   3.973551  -0.971511   0.119142   0.007630   1.715008  -0.018348   0.022452  -0.432983  -0.172037   0.004046   0.120617   0.028585   0.104685  -0.667020   0.123854  -0.168258  -0.815997   0.591901  -0.213245  -0.007908   2.375865   0.024489  -0.015849  -2.162428   0.682602  -1.007003  -0.087626   0.135469  -0.660662  -0.478476   0.066996  -0.005592  -2.401193  -0.028557  -0.044195   1.954565  -0.402795  -0.237856  -0.255121  -0.233388   3.387578   0.006492  -0.004284  -2.519254  -0.017933  -0.013632   0.032373   0.000068  -0.000043  -0.261862   0.229255   0.176794   3.380864  -0.005039   0.010488  -2.664747   0.237256   0.063309   0.134955  -0.000295   0.000688
 -2.376308   0.922359   3.970752  -2.191270   0.278749   0.022001   3.472194  -0.056106   0.056785  -0.650051  -0.362189   0.010652   0.280668   0.053796   0.218353  -1.297946   0.654817  -0.444415  -1.580437   1.510430  -0.495439  -0.019731   4.782322   0.042645  -0.056132  -3.315586   1.314889  -1.959522  -0.598666   0.332665  -1.284550  -1.296562   0.179754  -0.014941  -4.834312  -0.049835  -0.122605   2.873167  -0.799162  -0.390412  -0.515179  -0.654399   7.169540   0.017753  -0.008681  -4.858244  -0.041142  -0.030176   0.027699   0.000037  -0.000029  -0.435812   0.473517   0.527466   7.145054  -0.013688   0.023248  -5.142045   0.466698   0.134726   0.212369  -0.000522   0.000984
 -2.375996   0.920530   3.967533  -3.569627   0.500409   0.108912   5.274040  -0.123439   0.056088  -0.745096  -0.569340  -0.007135   0.420842   0.076864   0.327743  -1.880328   1.453421  -0.700469  -2.286227   2.602524  -0.771404  -0.029674   7.121772   0.054589  -0.097537  -3.828228   1.809914  -2.843774  -1.403737   0.486550  -1.863232  -2.310393   0.283039  -0.022729  -7.204881  -0.063914  -0.201968   3.130471  -1.105012  -0.582796  -0.842156  -1.108484  10.857186   0.024323  -0.013891  -7.052379  -0.112569   0.036202   0.093354   0.000193  -0.000144  -0.745667   0.836563   0.663625  10.805036  -0.012732   0.039402  -7.409803   0.756540   0.071211   0.360330  -0.000560   0.001952
 -2.375820   0.917797   3.964451  -4.989594   0.678067   0.127100   6.979198  -0.168260   0.107656  -0.782646  -0.755082  -0.002312   0.548399   0.099493   0.433011  -2.413777   2.409280  -1.015980  -2.936611   3.785929  -1.056153  -0.039720   9.368387   0.063339  -0.143415  -3.927491   2.266527  -3.661172  -2.362945   0.683252  -2.398957  -3.417078   0.397176  -0.031133  -9.480871  -0.073968  -0.283125   2.980340  -1.409687  -0.762361  -1.082753  -1.620395  14.651411   0.033323  -0.019285  -9.084995  -0.131808   0.012439   0.103728   0.000200  -0.000129  -0.997487   1.075973   1.060421  14.557077  -0.016521   0.049174  -9.568891   0.949483   0.161707   0.432845  -0.000721   0.001980
 -2.375708   0.914202   3.961606  -6.379902   0.830121   0.135507   8.564801  -0.206670   0.157549  -0.815719  -0.925752   0.006328   0.656103   0.120776   0.533414  -2.903277   3.441119  -1.345615  -3.536914   4.999964  -1.338154  -0.048664  11.506896   0.069677  -0.194896  -3.765002   2.650195  -4.418847  -3.396058   0.893656  -2.896134  -4.555923   0.521086  -0.038893 -11.646214  -0.081026  -0.365792   2.581786  -1.658741  -0.903980  -1.305935  -2.237920  18.251335   0.042290  -0.026251 -10.978084  -0.150281  -0.010654   0.123030   0.000261  -0.000136  -1.236635   1.288583   1.612036  18.316739  -0.022470   0.057820 -11.583007   1.128006   0.255197   0.503753  -0.000924   0.001974
 -2.375635   0.909774   3.959027  -7.719352   0.950066   0.142197  10.037864  -0.236638   0.201364  -0.854752  -1.080634   0.011886   0.745055   0.140770   0.627105  -3.352240   4.497865  -1.673977  -4.091393   6.206222  -1.607793  -0.055952  13.530082   0.073771  -0.251623  -3.443448   2.974535  -5.121658  -4.450653   1.103259  -3.357926  -5.687619   0.644845  -0.045358 -13.693476  -0.085439  -0.449637   2.039543  -1.858930  -1.022826  -1.510335  -2.949162  21.622220   0.049872  -0.034278 -12.744633  -0.168574  -0.033122   0.140135   0.000312  -0.000146  -1.474781   1.479355   2.276767  22.070553  -0.029146   0.065831 -13.462749   1.293723   0.350110   0.571650  -0.001130   0.001939
 -2.375779   0.904468   3.955678  -8.182874   0.943659   0.123038  10.822644  -0.164296   0.107452  -1.231205  -1.204489   0.122914   0.773214   0.176821   0.768739  -3.684876   5.323472  -2.058471  -4.215723   7.490099  -1.605528  -0.056589  15.476627   0.069266  -0.295883  -2.965358   3.073207  -5.585005  -5.527689   1.312483  -3.551508  -6.691749   0.721315  -0.047254 -15.589645  -0.081717  -0.559255   1.417274  -1.957206  -2.392453  -1.731587  -3.784133  25.316906   0.057428  -0.050689 -14.361874  -0.313379   0.090233   0.109041   0.000079   0.000047  -2.736784   1.635241   3.116675  25.897391  -0.039342   0.071917 -15.751573   1.635397   0.343437   0.737309  -0.001910   0.002554
 -2.375992   0.898403   3.952407  -8.606741   0.915357   0.092087  11.601025  -0.099302  -0.001062  -1.612607  -1.322721   0.235922   0.769457   0.212063   0.903430  -3.983500   6.111069  -2.371390  -4.327580   8.699872  -1.562576  -0.054781  17.300683   0.063766  -0.335461  -2.447862   3.231535  -6.011589  -6.559388   1.492722  -3.728894  -7.639824   0.781841  -0.047053 -17.359875  -0.076843  -0.658565   0.821413  -2.061351  -3.791783  -1.907201  -4.691945  28.730071   0.062073  -0.064696 -15.890193  -0.439293   0.211303  -0.183675  -0.001702   0.001641  -3.983656   1.734381   4.085510  29.658153  -0.049801   0.078537 -17.896821   1.958376   0.352470   0.846581  -0.002314   0.002680
 -2.376204   0.891612   3.949357  -9.027391   0.877149   0.059347  12.355004  -0.046562  -0.109893  -1.950174  -1.439070   0.340638   0.764585   0.244833   1.026491  -4.255517   6.855293  -2.632142  -4.431901   9.833730  -1.499476  -0.051617  19.005635   0.057889  -0.376388  -1.937254   3.427097  -6.406530  -7.536574   1.643206  -3.893475  -8.533481   0.827632  -0.045460 -19.014920  -0.071401  -0.754597   0.243729  -2.173310  -5.141855  -2.031940  -5.665524  31.922693   0.064655  -0.076104 -17.327247  -0.559082   0.321962  -0.480736  -0.003322   0.002975  -5.143201   1.784702   5.137579  33.292982  -0.058728   0.085505 -19.899269   2.261044   0.373719   0.946198  -0.002648   0.002715
 -2.376391   0.884141   3.946554  -9.433742   0.836676   0.029044  13.070240  -0.007197  -0.216221  -2.251942  -1.555717   0.436679   0.761726   0.275242   1.139639  -4.504289   7.549752  -2.851956  -4.529707  10.891052  -1.424042  -0.047741  20.597463   0.052065  -0.417656  -1.447540   3.643666  -6.772066  -8.455074   1.765136  -4.046146  -9.371765   0.859241  -0.042984 -20.561539  -0.065802  -0.847750  -0.315681  -2.294465  -6.435011  -2.105716  -6.678475  34.908404   0.065272  -0.084645 -18.688900  -0.664078   0.428804  -0.933808  -0.005782   0.004870  -6.200863   1.792961   6.240735  36.709491  -0.064963   0.091874 -21.767814   2.543655   0.404691   1.038160  -0.002902   0.002698
 -2.376598   0.876364   3.943934  -9.827026   0.815111  -0.015906  13.760004   0.014510  -0.307724  -2.519245  -1.677612   0.533063   0.758429   0.303325   1.245374  -4.730990   8.189816  -3.018734  -4.621435  11.871005  -1.332115  -0.043074  22.081894   0.046306  -0.458317  -0.987039   3.866289  -7.109365  -9.314568   1.843916  -4.187679 -10.155237   0.870774  -0.039522 -22.006326  -0.060089  -0.937873  -0.855576  -2.416862  -7.667584  -2.160174  -7.539568  37.843777   0.061533  -0.089401 -20.162685  -0.662661   0.651027  -0.865951  -0.004308   0.003609  -7.163776   1.759896   7.390087  39.893006  -0.068158   0.097431 -23.511324   2.806790   0.443159   1.129347  -0.003126   0.002694
 -2.376699   0.868426   3.941441 -10.202834   0.789749  -0.029275  14.425266   0.025889  -0.409193  -2.752253  -1.799291   0.612033   0.755122   0.329509   1.342310  -4.936828   8.777977  -3.145064  -4.706938  12.777768  -1.227421  -0.037954  23.465346   0.040666  -0.498246  -0.559845   4.102286  -7.419079 -10.113719   1.885053  -4.318067 -10.883263   0.861664  -0.035417 -23.354328  -0.054282  -1.025471  -1.368830  -2.555318  -8.849908  -2.218531  -8.266981  40.656863   0.053549  -0.090669 -21.626877  -0.626744   0.903196  -0.803990  -0.003270   0.002645  -8.040248   1.702322   8.506414  42.856113  -0.068636   0.101065 -25.139027   3.051085   0.487529   1.215975  -0.003266   0.002658
 -2.376757   0.860755   3.939039 -10.222791   0.728701  -0.034379  14.616110   0.053211  -0.523150  -2.955998  -1.891231   0.680750   0.715979   0.369545   1.449602  -5.054297   9.241096  -3.277678  -4.726335  13.660537  -1.017240  -0.032218  24.915067   0.035176  -0.516166  -0.233778   4.391177  -7.498272 -10.919345   2.034065  -4.486513 -11.520161   0.718937  -0.030511 -24.552209  -0.047605  -1.108855  -1.816998  -2.806572 -10.378742  -2.300333  -8.602285  43.420278   0.037906  -0.086200 -23.025639  -0.480919   1.357576  -0.650339  -0.003015   0.001705  -9.046879   1.624911   9.528580  45.065540  -0.064426   0.096762 -26.234651   3.242824   0.412781   1.421048  -0.004094   0.003114
 -2.376401   0.853312   3.936734 -10.210714   0.681558  -0.001031  14.780250   0.065628  -0.609811  -3.172124  -1.986401   0.737865   0.661718   0.407585   1.545834  -5.155942   9.671662  -3.397426  -4.742847  14.486400  -0.810712  -0.026811  26.273408   0.030595  -0.536191   0.113962   4.725241  -7.557682 -11.679300   2.156682  -4.639391 -12.114485   0.563497  -0.026232 -25.667083  -0.041455  -1.189134  -2.205533  -3.128955 -11.854221  -2.391053  -8.887997  46.029048   0.024000  -0.079691 -24.330258  -0.501468   1.689609  -0.513869  -0.002732   0.000840  -9.986194   1.539797  10.405107  47.012455  -0.058427   0.090473 -27.256592   3.420327   0.346246   1.642397  -0.004678   0.003507
